<svg width="60" height="60" viewBox="0 0 60 60" fill="none" xmlns="http://www.w3.org/2000/svg">
<path d="M49.3575 45.1125L39.78 42.7175L39.2275 40.505C45.835 39.3926 49.2349 37.4126 49.3849 37.325C49.7399 37.1175 49.96 36.74 49.99 36.33C50.0175 35.92 49.8349 35.5175 49.5124 35.26C49.4675 35.225 45 31.535 45 18.75C45 7.96746 42.4775 2.49996 37.5 2.49996H36.7625C34.9675 0.765 33.62 0 30 0C25.3025 0 15 4.72254 15 18.75C15 31.535 10.5325 35.225 10.5 35.25C10.1675 35.5 9.98004 35.8975 9.99996 36.3125C10.0225 36.7301 10.2475 37.1051 10.605 37.32C10.755 37.41 14.1225 39.4 20.77 40.51L20.2174 42.7174L10.64 45.1125C4.37496 46.68 0 52.285 0 58.75C0 59.44 0.560039 60 1.25004 60H58.7501C59.4401 60 60.0001 59.435 60.0001 58.745C60 52.285 55.625 46.68 49.3575 45.1125Z" fill="#361163"/>
</svg>
