<svg width="48" height="48" viewBox="0 0 48 48" fill="none" xmlns="http://www.w3.org/2000/svg">
<path d="M47.75 21.5V6.44375C47.7485 4.96728 47.1613 3.55171 46.1173 2.50769C45.0733 1.46367 43.6577 0.876489 42.1813 0.875H6.44375C4.96728 0.876489 3.55171 1.46367 2.50769 2.50769C1.46367 3.55171 0.876489 4.96728 0.875 6.44375V32.9375C0.876984 34.4138 1.46433 35.8291 2.50824 36.873C3.55215 37.9169 4.96743 38.5043 6.44375 38.5062H10.1187V45.875C10.1193 46.2393 10.226 46.5956 10.4258 46.9003C10.6256 47.205 10.9098 47.4449 11.2438 47.5906C11.4799 47.6956 11.7354 47.7499 11.9937 47.75C12.4631 47.75 12.9154 47.5741 13.2612 47.2569L21.5 39.7081V29.5438C21.505 27.4119 22.354 25.3689 23.8614 23.8614C25.3689 22.354 27.4119 21.505 29.5438 21.5H47.75Z" fill="#361163"/>
</svg>
