<svg width="33" height="33" viewBox="0 0 33 33" fill="none" xmlns="http://www.w3.org/2000/svg">
<path d="M27.8312 0.25H4.54375C3.40528 0.250993 2.31373 0.703688 1.50871 1.50871C0.703688 2.31373 0.250993 3.40528 0.25 4.54375V21.8125C0.250993 22.951 0.703688 24.0425 1.50871 24.8475C2.31373 25.6526 3.40528 26.1053 4.54375 26.1063H16.9187L22.9619 31.6338C23.3085 31.9507 23.7615 32.126 24.2313 32.125C24.4896 32.1249 24.7451 32.0706 24.9813 31.9656C25.3152 31.8199 25.5994 31.58 25.7992 31.2753C25.999 30.9706 26.1057 30.6143 26.1063 30.25V26.1063H27.8312C28.9697 26.1053 30.0613 25.6526 30.8663 24.8475C31.6713 24.0425 32.124 22.951 32.125 21.8125V4.54375C32.124 3.40528 31.6713 2.31373 30.8663 1.50871C30.0613 0.703688 28.9697 0.250993 27.8312 0.25Z" fill="#361163"/>
</svg>
